<svg width="529" height="280" viewBox="0 0 529 280" fill="none" xmlns="http://www.w3.org/2000/svg">
<mask id="mask0_1_793" style="mask-type:alpha" maskUnits="userSpaceOnUse" x="0" y="0" width="529" height="280">
<rect width="529" height="279.764" rx="13.1592" fill="#F5E7D6"/>
</mask>
<g mask="url(#mask0_1_793)">
<path fill-rule="evenodd" clip-rule="evenodd" d="M52.5382 149.769L254.625 24.0223C261.239 19.9069 264.546 17.8492 268.231 17.8107C271.917 17.7722 275.266 19.7604 281.964 23.7367L476.188 139.035C492.122 148.494 500.09 153.223 500.327 160.426C500.519 166.235 495.588 170.77 485.66 177.81C482.897 176.091 479.74 174.218 476.188 172.109L281.964 56.8112C275.266 52.8348 271.917 50.8467 268.231 50.8852C264.546 50.9237 261.239 52.9813 254.625 57.0967L52.5382 182.844C49.0786 184.996 45.9886 186.919 43.2685 188.683C33.2843 182.272 28.2894 177.959 28.275 172.21C28.2567 164.878 36.3505 159.842 52.5382 149.769ZM69.8765 205.129L52.6501 194.53L52.6486 194.529C49.1437 192.372 46.0171 190.448 43.2685 188.683C33.2614 195.174 28.2606 199.52 28.275 205.285C28.2894 211.034 33.2843 215.347 43.2687 221.758C33.2615 228.248 28.2606 232.594 28.275 238.359C28.2894 244.108 33.2843 248.421 43.2686 254.832C33.2614 261.323 28.2606 265.669 28.275 271.434C28.2894 277.183 33.2843 281.496 43.2687 287.907C33.2615 294.397 28.2606 298.743 28.275 304.508C28.2894 310.257 33.2844 314.57 43.2689 320.981C33.2615 327.472 28.2606 331.818 28.275 337.583C28.2894 343.332 33.2844 347.645 43.2687 354.056C33.2615 360.547 28.2606 364.893 28.275 370.658C28.2894 376.407 33.2844 380.72 43.2687 387.131C33.2615 393.621 28.2606 397.967 28.275 403.732C28.2934 411.064 36.4123 416.06 52.6501 426.052L253.629 549.72C260.705 554.074 264.243 556.251 268.144 556.153C272.046 556.055 275.47 553.704 282.319 549.002L477.651 414.884C492.927 404.396 500.565 399.151 500.327 391.948C500.143 386.351 495.29 382.247 485.659 376.257C495.588 369.218 500.519 364.683 500.327 358.874C500.143 353.277 495.29 349.173 485.659 343.183C495.588 336.143 500.519 331.608 500.327 325.799C500.143 320.202 495.29 316.098 485.659 310.108C495.588 303.068 500.519 298.533 500.327 292.724C500.143 287.127 495.29 283.023 485.659 277.033C495.588 269.994 500.519 265.459 500.327 259.65C500.143 254.052 495.291 249.949 485.66 243.959C495.588 236.919 500.519 232.384 500.327 226.575C500.143 220.978 495.29 216.874 485.659 210.884C495.588 203.845 500.519 199.31 500.327 193.501C500.143 187.903 495.291 183.8 485.66 177.81C483.279 179.498 480.61 181.33 477.656 183.359L477.651 183.362L459.928 195.531L281.964 89.8857L281.964 89.8856L281.964 89.8856L281.964 89.8855C275.266 85.9093 271.916 83.9212 268.231 83.9597C264.546 83.9982 261.239 86.0559 254.625 90.1713L69.8765 205.129ZM96.6018 221.574L69.8765 205.129L52.5382 215.918L52.5377 215.918C49.0783 218.071 45.9886 219.994 43.2687 221.758C46.0163 223.522 49.1417 225.445 52.6453 227.601L52.6497 227.604L52.6501 227.604L69.8765 238.204L52.5382 248.993C49.0786 251.145 45.9886 253.068 43.2686 254.832C46.0159 256.596 49.141 258.519 52.644 260.675L52.6483 260.677L52.6501 260.679L69.8765 271.278L52.5382 282.067L52.5377 282.067C49.0783 284.22 45.9886 286.143 43.2687 287.907C46.0169 289.671 49.1431 291.595 52.6475 293.751L52.6501 293.753L69.8768 304.353L52.5382 315.142C49.0787 317.295 45.9889 319.217 43.2689 320.981C46.0177 322.746 49.1447 324.671 52.6501 326.828L69.8769 337.428L52.5382 348.217C49.0786 350.369 45.9888 352.292 43.2687 354.056C46.0176 355.821 49.1447 357.745 52.6501 359.902L69.8768 370.503L52.5382 381.291C49.0786 383.444 45.9888 385.367 43.2687 387.131C46.0176 388.896 49.1447 390.82 52.6501 392.977L253.629 516.645L253.63 516.645C260.705 520.999 264.243 523.176 268.144 523.078C272.046 522.98 275.47 520.629 282.319 515.927L477.651 381.81C480.607 379.78 483.277 377.947 485.659 376.257C482.896 374.539 479.74 372.665 476.188 370.557L459.928 360.904L477.651 348.735C480.607 346.705 483.277 344.872 485.659 343.183C482.897 341.465 479.741 339.591 476.189 337.482L476.188 337.482L459.927 327.829L477.651 315.66C480.607 313.631 483.277 311.797 485.659 310.108C482.899 308.391 479.746 306.52 476.198 304.413L476.189 304.408L476.188 304.407L459.927 294.755L477.651 282.586C480.607 280.556 483.277 278.723 485.659 277.033C482.897 275.315 479.742 273.442 476.191 271.334L476.189 271.333L476.188 271.333L459.928 261.68L477.651 249.511L477.652 249.51C480.608 247.481 483.278 245.648 485.66 243.959C482.897 242.24 479.74 240.367 476.188 238.258L459.928 228.605L477.651 216.437C480.607 214.407 483.277 212.574 485.659 210.884C482.897 209.166 479.742 207.293 476.191 205.185L476.188 205.184L459.928 195.531L434.093 213.269L281.964 122.96C275.266 118.984 271.917 116.996 268.231 117.034C264.546 117.073 261.239 119.13 254.625 123.246L96.6018 221.574ZM123.327 238.019L96.6018 221.574L69.8765 238.204L96.6019 254.649L69.8765 271.278L96.6021 287.724L69.8768 304.353L96.6023 320.798L69.8769 337.428L96.6025 353.873L69.8768 370.503L253.629 483.571L253.63 483.571C260.705 487.924 264.243 490.101 268.144 490.003C272.046 489.906 275.47 487.555 282.319 482.852L459.928 360.904L434.093 345.568L459.927 327.829L434.093 312.493L459.927 294.755L434.093 279.418L459.928 261.68L434.093 246.344L459.928 228.605L434.093 213.269L408.259 231.007L281.964 156.035L281.964 156.035C275.266 152.058 271.916 150.07 268.231 150.109C264.546 150.147 261.239 152.205 254.625 156.32L123.327 238.019ZM150.053 254.464L123.327 238.019L96.6019 254.649L123.328 271.094L96.6021 287.724L123.328 304.168L96.6023 320.798L123.328 337.243L96.6025 353.873L253.629 450.496L253.63 450.496C260.705 454.849 264.243 457.026 268.144 456.929C272.046 456.831 275.47 454.48 282.319 449.777L434.093 345.568L408.258 330.231L434.093 312.493L408.258 297.157L434.093 279.418L408.258 264.082L434.093 246.344L408.259 231.007L382.424 248.746L281.964 189.11L281.964 189.109C275.266 185.133 271.916 183.145 268.231 183.184C264.546 183.222 261.239 185.28 254.625 189.395L150.053 254.464ZM176.778 270.909L150.053 254.464L123.328 271.094L150.053 287.539L123.328 304.168L150.053 320.613L123.328 337.243L253.629 417.421L253.63 417.421C260.705 421.775 264.243 423.952 268.144 423.854C272.046 423.756 275.47 421.405 282.319 416.703L408.258 330.231L382.424 314.895L408.258 297.157L382.424 281.821L408.258 264.082L382.424 248.746L356.589 266.484L281.964 222.184L281.964 222.184C275.266 218.208 271.916 216.22 268.231 216.258C264.546 216.297 261.239 218.354 254.625 222.47L176.778 270.909ZM203.504 287.354L176.778 270.909L150.053 287.539L176.779 303.984L150.053 320.613L253.629 384.347L253.63 384.347C260.705 388.701 264.243 390.877 268.144 390.78C272.046 390.682 275.47 388.331 282.319 383.628L382.424 314.895L356.589 299.559L382.424 281.821L356.589 266.484L330.755 284.223L281.964 255.259L281.964 255.259C275.266 251.283 271.916 249.294 268.231 249.333C264.546 249.371 261.239 251.429 254.625 255.544L203.504 287.354ZM330.755 284.223L282.319 317.479C275.47 322.182 272.046 324.533 268.144 324.631C264.243 324.728 260.705 322.551 253.63 318.198L253.629 318.198L203.504 287.354L176.779 303.984L253.629 351.272L253.63 351.272C260.705 355.626 264.243 357.803 268.144 357.705C272.046 357.607 275.47 355.256 282.319 350.554L356.589 299.559L330.755 284.223Z" fill="#560707"/>
</g>
</svg>
